<mxfile host="app.diagrams.net" agent="Mozilla/5.0 (Windows NT 10.0; Win64; x64) AppleWebKit/537.36 (KHTML, like Gecko) Chrome/132.0.0.0 YaBrowser/25.2.0.0 Safari/537.36" version="26.2.6">
  <diagram name="Страница — 1" id="-mfq2aO_iN6DvjIDpQLv">
    <mxGraphModel dx="2040" dy="1137" grid="1" gridSize="10" guides="1" tooltips="1" connect="1" arrows="1" fold="1" page="1" pageScale="1" pageWidth="827" pageHeight="1169" math="0" shadow="0">
      <root>
        <mxCell id="0" />
        <mxCell id="1" parent="0" />
        <mxCell id="iU6EtHVqtthTb44nJRj_-1" value="&lt;font style=&quot;font-size: 14px;&quot;&gt;Пользователь&lt;/font&gt;" style="rounded=0;whiteSpace=wrap;html=1;" vertex="1" parent="1">
          <mxGeometry x="790" y="55" width="130" height="70" as="geometry" />
        </mxCell>
        <mxCell id="iU6EtHVqtthTb44nJRj_-2" value="&lt;span style=&quot;font-size: 14px;&quot;&gt;Новость&lt;/span&gt;" style="rounded=0;whiteSpace=wrap;html=1;" vertex="1" parent="1">
          <mxGeometry x="797" y="335" width="130" height="70" as="geometry" />
        </mxCell>
        <mxCell id="iU6EtHVqtthTb44nJRj_-7" value="&lt;span style=&quot;font-size: 14px;&quot;&gt;Папка&lt;/span&gt;" style="rounded=0;whiteSpace=wrap;html=1;" vertex="1" parent="1">
          <mxGeometry x="430" y="55" width="130" height="70" as="geometry" />
        </mxCell>
        <mxCell id="iU6EtHVqtthTb44nJRj_-10" value="&lt;span style=&quot;font-size: 14px;&quot;&gt;Теги&lt;/span&gt;" style="rounded=0;whiteSpace=wrap;html=1;" vertex="1" parent="1">
          <mxGeometry x="1160" y="55" width="130" height="70" as="geometry" />
        </mxCell>
        <mxCell id="iU6EtHVqtthTb44nJRj_-14" value="&lt;span style=&quot;font-size: 14px;&quot;&gt;Логин&lt;/span&gt;" style="strokeWidth=2;html=1;shape=mxgraph.flowchart.terminator;whiteSpace=wrap;" vertex="1" parent="1">
          <mxGeometry x="837" y="155" width="90" height="30" as="geometry" />
        </mxCell>
        <mxCell id="iU6EtHVqtthTb44nJRj_-15" value="&lt;span style=&quot;font-size: 14px;&quot;&gt;Пароль&lt;/span&gt;" style="strokeWidth=2;html=1;shape=mxgraph.flowchart.terminator;whiteSpace=wrap;" vertex="1" parent="1">
          <mxGeometry x="837" y="195" width="90" height="30" as="geometry" />
        </mxCell>
        <mxCell id="iU6EtHVqtthTb44nJRj_-16" value="&lt;span style=&quot;font-size: 14px;&quot;&gt;Роль&lt;/span&gt;" style="strokeWidth=2;html=1;shape=mxgraph.flowchart.terminator;whiteSpace=wrap;" vertex="1" parent="1">
          <mxGeometry x="837" y="235" width="90" height="30" as="geometry" />
        </mxCell>
        <mxCell id="iU6EtHVqtthTb44nJRj_-18" value="" style="endArrow=none;html=1;rounded=0;entryX=0.25;entryY=1;entryDx=0;entryDy=0;exitX=0;exitY=0.5;exitDx=0;exitDy=0;exitPerimeter=0;" edge="1" parent="1">
          <mxGeometry width="50" height="50" relative="1" as="geometry">
            <mxPoint x="837" y="170" as="sourcePoint" />
            <mxPoint x="820" y="125" as="targetPoint" />
            <Array as="points">
              <mxPoint x="820" y="170" />
            </Array>
          </mxGeometry>
        </mxCell>
        <mxCell id="iU6EtHVqtthTb44nJRj_-19" value="" style="endArrow=none;html=1;rounded=0;entryX=0.25;entryY=1;entryDx=0;entryDy=0;exitX=0;exitY=0.5;exitDx=0;exitDy=0;exitPerimeter=0;" edge="1" parent="1">
          <mxGeometry width="50" height="50" relative="1" as="geometry">
            <mxPoint x="837" y="210" as="sourcePoint" />
            <mxPoint x="820" y="165" as="targetPoint" />
            <Array as="points">
              <mxPoint x="820" y="210" />
            </Array>
          </mxGeometry>
        </mxCell>
        <mxCell id="iU6EtHVqtthTb44nJRj_-20" value="" style="endArrow=none;html=1;rounded=0;entryX=0.25;entryY=1;entryDx=0;entryDy=0;exitX=0;exitY=0.5;exitDx=0;exitDy=0;exitPerimeter=0;" edge="1" parent="1">
          <mxGeometry width="50" height="50" relative="1" as="geometry">
            <mxPoint x="837" y="250" as="sourcePoint" />
            <mxPoint x="820" y="205" as="targetPoint" />
            <Array as="points">
              <mxPoint x="820" y="250" />
            </Array>
          </mxGeometry>
        </mxCell>
        <mxCell id="iU6EtHVqtthTb44nJRj_-21" value="&lt;font style=&quot;font-size: 14px;&quot;&gt;A&lt;/font&gt;" style="strokeWidth=2;html=1;shape=mxgraph.flowchart.decision;whiteSpace=wrap;" vertex="1" parent="1">
          <mxGeometry x="640" y="60" width="60" height="60" as="geometry" />
        </mxCell>
        <mxCell id="iU6EtHVqtthTb44nJRj_-22" value="" style="endArrow=none;html=1;rounded=0;entryX=0;entryY=0.5;entryDx=0;entryDy=0;exitX=1;exitY=0.5;exitDx=0;exitDy=0;exitPerimeter=0;" edge="1" parent="1" source="iU6EtHVqtthTb44nJRj_-21" target="iU6EtHVqtthTb44nJRj_-1">
          <mxGeometry width="50" height="50" relative="1" as="geometry">
            <mxPoint x="720" y="415" as="sourcePoint" />
            <mxPoint x="770" y="365" as="targetPoint" />
          </mxGeometry>
        </mxCell>
        <mxCell id="iU6EtHVqtthTb44nJRj_-23" value="" style="endArrow=none;html=1;rounded=0;exitX=0;exitY=0.5;exitDx=0;exitDy=0;exitPerimeter=0;entryX=1;entryY=0.5;entryDx=0;entryDy=0;" edge="1" parent="1" source="iU6EtHVqtthTb44nJRj_-21" target="iU6EtHVqtthTb44nJRj_-7">
          <mxGeometry width="50" height="50" relative="1" as="geometry">
            <mxPoint x="670" y="245" as="sourcePoint" />
            <mxPoint x="720" y="195" as="targetPoint" />
          </mxGeometry>
        </mxCell>
        <mxCell id="iU6EtHVqtthTb44nJRj_-24" value="&lt;font style=&quot;font-size: 14px;&quot;&gt;N&lt;/font&gt;" style="text;html=1;align=center;verticalAlign=middle;resizable=0;points=[];autosize=1;strokeColor=none;fillColor=none;" vertex="1" parent="1">
          <mxGeometry x="560" y="60" width="30" height="30" as="geometry" />
        </mxCell>
        <mxCell id="iU6EtHVqtthTb44nJRj_-25" value="&lt;span style=&quot;font-size: 14px;&quot;&gt;N&lt;/span&gt;" style="text;html=1;align=center;verticalAlign=middle;resizable=0;points=[];autosize=1;strokeColor=none;fillColor=none;" vertex="1" parent="1">
          <mxGeometry x="760" y="63" width="30" height="30" as="geometry" />
        </mxCell>
        <mxCell id="iU6EtHVqtthTb44nJRj_-31" value="&lt;font style=&quot;font-size: 16px;&quot;&gt;A - владеет&lt;/font&gt;&lt;div&gt;&lt;font style=&quot;font-size: 16px;&quot;&gt;B - хранит&lt;/font&gt;&lt;/div&gt;&lt;div&gt;&lt;font style=&quot;font-size: 16px;&quot;&gt;C - содержит&lt;/font&gt;&lt;/div&gt;&lt;div&gt;&lt;span style=&quot;font-size: 16px;&quot;&gt;D - взята из&lt;/span&gt;&lt;/div&gt;" style="text;html=1;align=left;verticalAlign=middle;resizable=0;points=[];autosize=1;strokeColor=none;fillColor=none;" vertex="1" parent="1">
          <mxGeometry x="120" y="45" width="120" height="90" as="geometry" />
        </mxCell>
        <mxCell id="iU6EtHVqtthTb44nJRj_-46" value="&lt;span style=&quot;font-size: 14px;&quot;&gt;Создатель&lt;/span&gt;" style="strokeWidth=2;html=1;shape=mxgraph.flowchart.terminator;whiteSpace=wrap;" vertex="1" parent="1">
          <mxGeometry x="360" y="155" width="90" height="30" as="geometry" />
        </mxCell>
        <mxCell id="iU6EtHVqtthTb44nJRj_-47" value="&lt;span style=&quot;font-size: 14px;&quot;&gt;Название&lt;/span&gt;" style="strokeWidth=2;html=1;shape=mxgraph.flowchart.terminator;whiteSpace=wrap;" vertex="1" parent="1">
          <mxGeometry x="360" y="195" width="90" height="30" as="geometry" />
        </mxCell>
        <mxCell id="iU6EtHVqtthTb44nJRj_-49" value="" style="endArrow=none;html=1;rounded=0;entryX=0.25;entryY=1;entryDx=0;entryDy=0;exitX=1;exitY=0.5;exitDx=0;exitDy=0;exitPerimeter=0;" edge="1" parent="1" source="iU6EtHVqtthTb44nJRj_-46" target="iU6EtHVqtthTb44nJRj_-7">
          <mxGeometry width="50" height="50" relative="1" as="geometry">
            <mxPoint x="540" y="235" as="sourcePoint" />
            <mxPoint x="590" y="185" as="targetPoint" />
            <Array as="points">
              <mxPoint x="463" y="170" />
            </Array>
          </mxGeometry>
        </mxCell>
        <mxCell id="iU6EtHVqtthTb44nJRj_-53" value="" style="endArrow=none;html=1;rounded=0;entryX=0.25;entryY=1;entryDx=0;entryDy=0;exitX=1;exitY=0.5;exitDx=0;exitDy=0;exitPerimeter=0;" edge="1" parent="1">
          <mxGeometry width="50" height="50" relative="1" as="geometry">
            <mxPoint x="450" y="210" as="sourcePoint" />
            <mxPoint x="463" y="165" as="targetPoint" />
            <Array as="points">
              <mxPoint x="463" y="210" />
            </Array>
          </mxGeometry>
        </mxCell>
        <mxCell id="iU6EtHVqtthTb44nJRj_-61" value="&lt;span style=&quot;font-size: 14px;&quot;&gt;B&lt;/span&gt;" style="strokeWidth=2;html=1;shape=mxgraph.flowchart.decision;whiteSpace=wrap;" vertex="1" parent="1">
          <mxGeometry x="465" y="340" width="60" height="60" as="geometry" />
        </mxCell>
        <mxCell id="iU6EtHVqtthTb44nJRj_-62" value="" style="endArrow=none;html=1;rounded=0;entryX=0.5;entryY=1;entryDx=0;entryDy=0;exitX=0.5;exitY=0;exitDx=0;exitDy=0;exitPerimeter=0;" edge="1" parent="1" source="iU6EtHVqtthTb44nJRj_-61" target="iU6EtHVqtthTb44nJRj_-7">
          <mxGeometry width="50" height="50" relative="1" as="geometry">
            <mxPoint x="490" y="275" as="sourcePoint" />
            <mxPoint x="540" y="225" as="targetPoint" />
          </mxGeometry>
        </mxCell>
        <mxCell id="iU6EtHVqtthTb44nJRj_-63" value="" style="endArrow=none;html=1;rounded=0;exitX=1;exitY=0.5;exitDx=0;exitDy=0;exitPerimeter=0;entryX=0;entryY=0.5;entryDx=0;entryDy=0;" edge="1" parent="1" source="iU6EtHVqtthTb44nJRj_-61" target="iU6EtHVqtthTb44nJRj_-2">
          <mxGeometry width="50" height="50" relative="1" as="geometry">
            <mxPoint x="650" y="455" as="sourcePoint" />
            <mxPoint x="700" y="405" as="targetPoint" />
          </mxGeometry>
        </mxCell>
        <mxCell id="iU6EtHVqtthTb44nJRj_-64" value="&lt;font style=&quot;font-size: 14px;&quot;&gt;N&lt;/font&gt;" style="text;html=1;align=center;verticalAlign=middle;resizable=0;points=[];autosize=1;strokeColor=none;fillColor=none;" vertex="1" parent="1">
          <mxGeometry x="495" y="125" width="30" height="30" as="geometry" />
        </mxCell>
        <mxCell id="iU6EtHVqtthTb44nJRj_-65" value="&lt;font style=&quot;font-size: 14px;&quot;&gt;N&lt;/font&gt;" style="text;html=1;align=center;verticalAlign=middle;resizable=0;points=[];autosize=1;strokeColor=none;fillColor=none;" vertex="1" parent="1">
          <mxGeometry x="767" y="335" width="30" height="30" as="geometry" />
        </mxCell>
        <mxCell id="iU6EtHVqtthTb44nJRj_-75" value="&lt;span style=&quot;font-size: 14px;&quot;&gt;C&lt;/span&gt;" style="strokeWidth=2;html=1;shape=mxgraph.flowchart.decision;whiteSpace=wrap;" vertex="1" parent="1">
          <mxGeometry x="1195" y="340" width="60" height="60" as="geometry" />
        </mxCell>
        <mxCell id="iU6EtHVqtthTb44nJRj_-76" value="" style="endArrow=none;html=1;rounded=0;entryX=0;entryY=0.5;entryDx=0;entryDy=0;exitX=1;exitY=0.5;exitDx=0;exitDy=0;entryPerimeter=0;" edge="1" parent="1" source="iU6EtHVqtthTb44nJRj_-2" target="iU6EtHVqtthTb44nJRj_-75">
          <mxGeometry width="50" height="50" relative="1" as="geometry">
            <mxPoint x="960" y="475" as="sourcePoint" />
            <mxPoint x="1030" y="475" as="targetPoint" />
          </mxGeometry>
        </mxCell>
        <mxCell id="iU6EtHVqtthTb44nJRj_-78" value="&lt;span style=&quot;font-size: 14px;&quot;&gt;Ресурс&lt;/span&gt;" style="rounded=0;whiteSpace=wrap;html=1;" vertex="1" parent="1">
          <mxGeometry x="540" y="485" width="130" height="70" as="geometry" />
        </mxCell>
        <mxCell id="iU6EtHVqtthTb44nJRj_-80" value="" style="endArrow=none;html=1;rounded=0;entryX=0.75;entryY=1;entryDx=0;entryDy=0;exitX=0;exitY=0.5;exitDx=0;exitDy=0;exitPerimeter=0;" edge="1" parent="1" source="iU6EtHVqtthTb44nJRj_-81" target="iU6EtHVqtthTb44nJRj_-10">
          <mxGeometry width="50" height="50" relative="1" as="geometry">
            <mxPoint x="1260" y="165" as="sourcePoint" />
            <mxPoint x="1350" y="145" as="targetPoint" />
            <Array as="points">
              <mxPoint x="1258" y="160" />
            </Array>
          </mxGeometry>
        </mxCell>
        <mxCell id="iU6EtHVqtthTb44nJRj_-81" value="&lt;span style=&quot;font-size: 14px;&quot;&gt;Название&lt;/span&gt;" style="strokeWidth=2;html=1;shape=mxgraph.flowchart.terminator;whiteSpace=wrap;" vertex="1" parent="1">
          <mxGeometry x="1280" y="145" width="90" height="30" as="geometry" />
        </mxCell>
        <mxCell id="iU6EtHVqtthTb44nJRj_-82" value="" style="endArrow=none;html=1;rounded=0;entryX=0.5;entryY=1;entryDx=0;entryDy=0;exitX=0.5;exitY=0;exitDx=0;exitDy=0;exitPerimeter=0;" edge="1" parent="1" source="iU6EtHVqtthTb44nJRj_-75" target="iU6EtHVqtthTb44nJRj_-10">
          <mxGeometry width="50" height="50" relative="1" as="geometry">
            <mxPoint x="1190" y="305" as="sourcePoint" />
            <mxPoint x="1240" y="255" as="targetPoint" />
          </mxGeometry>
        </mxCell>
        <mxCell id="iU6EtHVqtthTb44nJRj_-83" value="&lt;span style=&quot;font-size: 14px;&quot;&gt;D&lt;/span&gt;" style="strokeWidth=2;html=1;shape=mxgraph.flowchart.decision;whiteSpace=wrap;" vertex="1" parent="1">
          <mxGeometry x="752" y="490" width="60" height="60" as="geometry" />
        </mxCell>
        <mxCell id="iU6EtHVqtthTb44nJRj_-84" value="" style="endArrow=none;html=1;rounded=0;exitX=1;exitY=0.5;exitDx=0;exitDy=0;entryX=0;entryY=0.5;entryDx=0;entryDy=0;entryPerimeter=0;" edge="1" parent="1" source="iU6EtHVqtthTb44nJRj_-78" target="iU6EtHVqtthTb44nJRj_-83">
          <mxGeometry width="50" height="50" relative="1" as="geometry">
            <mxPoint x="710" y="655" as="sourcePoint" />
            <mxPoint x="760" y="605" as="targetPoint" />
          </mxGeometry>
        </mxCell>
        <mxCell id="iU6EtHVqtthTb44nJRj_-85" value="" style="endArrow=none;html=1;rounded=0;entryX=0.5;entryY=1;entryDx=0;entryDy=0;exitX=1;exitY=0.5;exitDx=0;exitDy=0;exitPerimeter=0;" edge="1" parent="1" source="iU6EtHVqtthTb44nJRj_-83" target="iU6EtHVqtthTb44nJRj_-2">
          <mxGeometry width="50" height="50" relative="1" as="geometry">
            <mxPoint x="830" y="515" as="sourcePoint" />
            <mxPoint x="870" y="465" as="targetPoint" />
            <Array as="points">
              <mxPoint x="860" y="520" />
            </Array>
          </mxGeometry>
        </mxCell>
        <mxCell id="iU6EtHVqtthTb44nJRj_-86" value="&lt;font style=&quot;font-size: 14px;&quot;&gt;N&lt;/font&gt;" style="text;html=1;align=center;verticalAlign=middle;resizable=0;points=[];autosize=1;strokeColor=none;fillColor=none;" vertex="1" parent="1">
          <mxGeometry x="927" y="340" width="30" height="30" as="geometry" />
        </mxCell>
        <mxCell id="iU6EtHVqtthTb44nJRj_-87" value="&lt;font style=&quot;font-size: 14px;&quot;&gt;N&lt;/font&gt;" style="text;html=1;align=center;verticalAlign=middle;resizable=0;points=[];autosize=1;strokeColor=none;fillColor=none;" vertex="1" parent="1">
          <mxGeometry x="837" y="400" width="30" height="30" as="geometry" />
        </mxCell>
        <mxCell id="iU6EtHVqtthTb44nJRj_-88" value="&lt;font style=&quot;font-size: 14px;&quot;&gt;1&lt;/font&gt;" style="text;html=1;align=center;verticalAlign=middle;resizable=0;points=[];autosize=1;strokeColor=none;fillColor=none;" vertex="1" parent="1">
          <mxGeometry x="670" y="490" width="30" height="30" as="geometry" />
        </mxCell>
        <mxCell id="iU6EtHVqtthTb44nJRj_-89" value="&lt;font style=&quot;font-size: 14px;&quot;&gt;N&lt;/font&gt;" style="text;html=1;align=center;verticalAlign=middle;resizable=0;points=[];autosize=1;strokeColor=none;fillColor=none;" vertex="1" parent="1">
          <mxGeometry x="1190" y="125" width="30" height="30" as="geometry" />
        </mxCell>
        <mxCell id="iU6EtHVqtthTb44nJRj_-90" value="&lt;span style=&quot;font-size: 14px;&quot;&gt;Тип новости&lt;/span&gt;" style="strokeWidth=2;html=1;shape=mxgraph.flowchart.terminator;whiteSpace=wrap;" vertex="1" parent="1">
          <mxGeometry x="910" y="420" width="90" height="30" as="geometry" />
        </mxCell>
        <mxCell id="iU6EtHVqtthTb44nJRj_-91" value="&lt;span style=&quot;font-size: 14px;&quot;&gt;Название&lt;/span&gt;" style="strokeWidth=2;html=1;shape=mxgraph.flowchart.terminator;whiteSpace=wrap;" vertex="1" parent="1">
          <mxGeometry x="910" y="460" width="90" height="30" as="geometry" />
        </mxCell>
        <mxCell id="iU6EtHVqtthTb44nJRj_-92" value="&lt;span style=&quot;font-size: 14px;&quot;&gt;Контент&lt;/span&gt;" style="strokeWidth=2;html=1;shape=mxgraph.flowchart.terminator;whiteSpace=wrap;" vertex="1" parent="1">
          <mxGeometry x="910" y="500" width="90" height="30" as="geometry" />
        </mxCell>
        <mxCell id="iU6EtHVqtthTb44nJRj_-93" value="&lt;span style=&quot;font-size: 14px;&quot;&gt;Статус&lt;/span&gt;" style="strokeWidth=2;html=1;shape=mxgraph.flowchart.terminator;whiteSpace=wrap;" vertex="1" parent="1">
          <mxGeometry x="910" y="540" width="90" height="30" as="geometry" />
        </mxCell>
        <mxCell id="iU6EtHVqtthTb44nJRj_-94" value="" style="endArrow=none;html=1;rounded=0;entryX=0.75;entryY=1;entryDx=0;entryDy=0;exitX=0;exitY=0.5;exitDx=0;exitDy=0;exitPerimeter=0;" edge="1" parent="1" source="iU6EtHVqtthTb44nJRj_-90" target="iU6EtHVqtthTb44nJRj_-2">
          <mxGeometry width="50" height="50" relative="1" as="geometry">
            <mxPoint x="870" y="490" as="sourcePoint" />
            <mxPoint x="920" y="440" as="targetPoint" />
            <Array as="points">
              <mxPoint x="895" y="435" />
            </Array>
          </mxGeometry>
        </mxCell>
        <mxCell id="iU6EtHVqtthTb44nJRj_-95" value="" style="endArrow=none;html=1;rounded=0;exitX=0;exitY=0.5;exitDx=0;exitDy=0;exitPerimeter=0;entryX=0.75;entryY=1;entryDx=0;entryDy=0;" edge="1" parent="1" source="iU6EtHVqtthTb44nJRj_-91" target="iU6EtHVqtthTb44nJRj_-2">
          <mxGeometry width="50" height="50" relative="1" as="geometry">
            <mxPoint x="910" y="485" as="sourcePoint" />
            <mxPoint x="890" y="430" as="targetPoint" />
            <Array as="points">
              <mxPoint x="895" y="475" />
            </Array>
          </mxGeometry>
        </mxCell>
        <mxCell id="iU6EtHVqtthTb44nJRj_-96" value="" style="endArrow=none;html=1;rounded=0;exitX=0;exitY=0.5;exitDx=0;exitDy=0;exitPerimeter=0;entryX=0.75;entryY=1;entryDx=0;entryDy=0;" edge="1" parent="1" source="iU6EtHVqtthTb44nJRj_-92" target="iU6EtHVqtthTb44nJRj_-2">
          <mxGeometry width="50" height="50" relative="1" as="geometry">
            <mxPoint x="910" y="525" as="sourcePoint" />
            <mxPoint x="880" y="500" as="targetPoint" />
            <Array as="points">
              <mxPoint x="895" y="515" />
            </Array>
          </mxGeometry>
        </mxCell>
        <mxCell id="iU6EtHVqtthTb44nJRj_-97" value="" style="endArrow=none;html=1;rounded=0;exitX=0;exitY=0.5;exitDx=0;exitDy=0;exitPerimeter=0;entryX=0.75;entryY=1;entryDx=0;entryDy=0;" edge="1" parent="1" source="iU6EtHVqtthTb44nJRj_-93" target="iU6EtHVqtthTb44nJRj_-2">
          <mxGeometry width="50" height="50" relative="1" as="geometry">
            <mxPoint x="910" y="560" as="sourcePoint" />
            <mxPoint x="870" y="540" as="targetPoint" />
            <Array as="points">
              <mxPoint x="895" y="555" />
            </Array>
          </mxGeometry>
        </mxCell>
        <mxCell id="iU6EtHVqtthTb44nJRj_-101" value="&lt;span style=&quot;font-size: 14px;&quot;&gt;Название&lt;/span&gt;" style="strokeWidth=2;html=1;shape=mxgraph.flowchart.terminator;whiteSpace=wrap;" vertex="1" parent="1">
          <mxGeometry x="600" y="570" width="90" height="30" as="geometry" />
        </mxCell>
        <mxCell id="iU6EtHVqtthTb44nJRj_-102" value="&lt;span style=&quot;font-size: 14px;&quot;&gt;Ссылка&lt;/span&gt;" style="strokeWidth=2;html=1;shape=mxgraph.flowchart.terminator;whiteSpace=wrap;" vertex="1" parent="1">
          <mxGeometry x="600" y="610" width="90" height="30" as="geometry" />
        </mxCell>
        <mxCell id="iU6EtHVqtthTb44nJRj_-103" value="" style="endArrow=none;html=1;rounded=0;entryX=0.25;entryY=1;entryDx=0;entryDy=0;exitX=0;exitY=0.5;exitDx=0;exitDy=0;exitPerimeter=0;" edge="1" parent="1" source="iU6EtHVqtthTb44nJRj_-101" target="iU6EtHVqtthTb44nJRj_-78">
          <mxGeometry width="50" height="50" relative="1" as="geometry">
            <mxPoint x="530" y="620" as="sourcePoint" />
            <mxPoint x="580" y="570" as="targetPoint" />
            <Array as="points">
              <mxPoint x="573" y="585" />
            </Array>
          </mxGeometry>
        </mxCell>
        <mxCell id="iU6EtHVqtthTb44nJRj_-105" value="" style="endArrow=none;html=1;rounded=0;entryX=0.25;entryY=1;entryDx=0;entryDy=0;exitX=0;exitY=0.5;exitDx=0;exitDy=0;exitPerimeter=0;" edge="1" parent="1" source="iU6EtHVqtthTb44nJRj_-102">
          <mxGeometry width="50" height="50" relative="1" as="geometry">
            <mxPoint x="600" y="615" as="sourcePoint" />
            <mxPoint x="573" y="585" as="targetPoint" />
            <Array as="points">
              <mxPoint x="573" y="625" />
            </Array>
          </mxGeometry>
        </mxCell>
      </root>
    </mxGraphModel>
  </diagram>
</mxfile>
